<svg id="Layer_1" data-name="Layer 1" xmlns="http://www.w3.org/2000/svg" viewBox="0 0 159.35 109.27"><defs><style>.cls-1{fill:#fff;}</style></defs><g id="Layer_2" data-name="Layer 2"><g id="Layer_1-2" data-name="Layer 1-2"><path class="cls-1" d="M154.85,4.5V104.77H4.5V4.5H154.85m4.5-4.5H0V109.27H159.35Z"/><polygon class="cls-1" points="95.52 76.01 95.52 72.63 101.16 72.63 101.16 62.15 85.91 74.47 101.16 86.83 101.16 76.01 95.52 76.01"/><polygon class="cls-1" points="58.88 48.49 74.97 35.47 58.88 22.43 58.88 48.49"/><path class="cls-1" d="M120,22.72a32,32,0,0,0-34.22,4L75,35.47l9.88,8h33.36v3.38H89l8.34,6.76h20.84V57H101.55l36.81,29.82v-35A32,32,0,0,0,120,22.72Z"/><circle class="cls-1" cx="54.17" cy="35.43" r="4.51"/><path class="cls-1" d="M76.87,67.15H41.82V63.77H72.69L64.35,57H41.82V53.62H60.17L21.68,22.43V58.77A32.29,32.29,0,0,0,74.27,83.88l11.64-9.41Z"/></g></g></svg>